<svg id="Layer_1" data-name="Layer 1" xmlns="http://www.w3.org/2000/svg" viewBox="0 0 50 50"><path d="M45.22,5.55H4.78A2.85,2.85,0,0,0,1.94,8.39V35.83a2.84,2.84,0,0,0,2.84,2.84H18.46l-.55,4.43h-2.3a.68.68,0,0,0,0,1.35H34.39a.68.68,0,0,0,0-1.35h-2.3l-.55-4.43H45.22a2.84,2.84,0,0,0,2.84-2.84V8.39A2.85,2.85,0,0,0,45.22,5.55ZM19.27,43.1l.55-4.43h2.49l.24,1a2.53,2.53,0,0,0,4.9,0l.24-1h2.49l.55,4.43Zm4.43-4.43h2.6l-.16.65a1.18,1.18,0,0,1-2.28,0Zm23-2.84h0a1.49,1.49,0,0,1-1.49,1.49H4.78a1.49,1.49,0,0,1-1.49-1.49V8.39A1.49,1.49,0,0,1,4.78,6.9H45.22a1.49,1.49,0,0,1,1.49,1.49V35.83Z"/><path d="M40.16,8.44H5.51a.67.67,0,0,0-.68.68v26a.67.67,0,0,0,.68.67H7a.68.68,0,0,0,.68-.67A.69.69,0,0,0,7,34.43H6.18V9.79h34a.68.68,0,1,0,0-1.35Z"/><path d="M44.49,8.44H43.05a.68.68,0,1,0,0,1.35h.77V34.43h-34a.68.68,0,0,0-.68.68.67.67,0,0,0,.68.67H44.49a.67.67,0,0,0,.68-.67v-26A.67.67,0,0,0,44.49,8.44Z"/><path d="M34.2,15.92a.69.69,0,0,0-.51-.26l-15.88-.72h0a1.38,1.38,0,0,0-.56-.76l-1.94-1.29A.67.67,0,1,0,14.52,14l1.94,1.3,0,0L19,24a2.1,2.1,0,0,0,.37.73l-.91,1.81a1.4,1.4,0,0,0,.06,1.36,1.27,1.27,0,0,0,.35.38,2.09,2.09,0,0,0-.28,1,2.12,2.12,0,1,0,4.24,0,2,2,0,0,0-.15-.77H28.8a2.19,2.19,0,0,0-.14.77,2.12,2.12,0,1,0,4.24,0,2,2,0,0,0-.23-.94.67.67,0,0,0-.45-1.18H19.67a0,0,0,0,1,0,0s0,0,0,0l.83-1.68a1.88,1.88,0,0,0,.53.07h.25l9.5-1.12a2.82,2.82,0,0,0,2.45-2.26l1.14-5.68A.68.68,0,0,0,34.2,15.92ZM30.78,28.56a.77.77,0,1,1-.77.77A.77.77,0,0,1,30.78,28.56Zm-10.11,0a.77.77,0,1,1,0,1.54.77.77,0,1,1,0-1.54ZM19,19.27l-.85-3,2.71.12.46,2.84Zm2.08,4.92a.77.77,0,0,1-.83-.56l-.86-3h2.16l.56,3.44Zm4-.47-1.58.19-.54-3.29h2.12Zm0-4.45H22.7l-.45-2.78,2.8.13Zm3.42,4.05-2.07.24V20.62h2.31Zm.36-4.05H26.4V16.68l2.66.12Zm3,2.61a1.5,1.5,0,0,1-1.29,1.19l-.74.09.23-2.54h2Zm.52-2.61h-2.2l.22-2.41,2.44.11Z"/></svg>