<svg id="Layer_1" data-name="Layer 1" xmlns="http://www.w3.org/2000/svg" viewBox="0 0 50 50"><path d="M47.38,42a2.07,2.07,0,0,1-2.22,1.35q-15.27,0-30.54,0a3.61,3.61,0,0,1-.87-.07,1.69,1.69,0,0,1-1.26-1.81c.06-1.76.14-3.52.21-5.28,0-.15,0-.29,0-.49H8.82A1.29,1.29,0,0,1,7.4,34.28c0-1.21,0-2.42,0-3.63,0-.5.25-.77.65-.76s.62.29.62.79v3.65h4.1c.05-.28.1-.58.17-.87a5.84,5.84,0,0,1,1-2.16,1.25,1.25,0,0,0,.23-.66c0-2.36,0-4.72,0-7.08,0-1,.37-1.4,1.39-1.4h4.32c1,0,1.38.38,1.38,1.37v4.22c.71-.25,1.38-.47,2-.73a1.28,1.28,0,0,1,1.5.18l0,0c.23.12,1.46-.56,1.48-.83,0-.11,0-.23,0-.34A1,1,0,0,0,25.83,25a6.87,6.87,0,0,1-2.59-4.5c0-.06,0-.11,0-.16a5.25,5.25,0,0,1-.73-.14,1.35,1.35,0,0,1-1-1.23c0-.43,0-.87,0-1.3,0-.6-.09-1.19-.14-1.78a.45.45,0,0,0-.15-.24l-3.46-3.26-.3.25c-2.84,2.68-5.69,5.35-8.52,8a.88.88,0,0,0-.23.56c0,1.67,0,3.35,0,5,0,.16,0,.37-.05.47s-.38.44-.57.43-.45-.25-.6-.44-.06-.33-.06-.51c0-1.32,0-2.65,0-4.1l-.66.61c-.3.28-.59.57-.91.82a1.93,1.93,0,0,1-2.64-.19,1.9,1.9,0,0,1,0-2.65c.75-.77,1.55-1.49,2.33-2.23.57-.54,1.16-1.07,1.71-1.63a.9.9,0,0,0,.25-.55c0-1.46,0-2.92,0-4.37,0-1,.33-1.29,1.28-1.29H11c1,0,1.32.24,1.41,1.35l.34-.3,3.43-3.24a2,2,0,0,1,3.12,0l3.44,3.22c.07-.11.14-.19.19-.29a6.66,6.66,0,0,1,4.86-3.68.63.63,0,0,0,.41-.26,2.5,2.5,0,0,1,3.51,0,.82.82,0,0,0,.49.29,6.77,6.77,0,0,1,5.43,5.76,2.58,2.58,0,0,1,0,.39.94.94,0,0,0,.45.89c.57.39.44,1.06.41,1.65s-.1,1.36-.11,2c0,1.28-.44,1.76-1.73,1.89a6.15,6.15,0,0,1-1,2.82,19,19,0,0,1-1.79,2A1.12,1.12,0,0,0,34,26.83a3.84,3.84,0,0,1,.35.18.73.73,0,0,0,1,0,1,1,0,0,1,.82-.09c2.45.84,4.9,1.66,7.31,2.6a5.45,5.45,0,0,1,3.6,5c0,.73.07,1.46.09,2.19a.65.65,0,0,1-.6.76c-.37,0-.64-.26-.67-.71,0-.86,0-1.72-.15-2.57a4.24,4.24,0,0,0-2.83-3.57c-.29-.12-.6-.21-.95-.33V42h3.35c.68,0,.79-.12.77-.79,0-.13,0-.26,0-.39a.62.62,0,0,1,.48-.65.59.59,0,0,1,.74.38.67.67,0,0,0,.09.14ZM36.44,28.34c-.16.75-.3,1.43-.43,2.11A3.69,3.69,0,0,1,34.24,33l-3.32,2.09a.62.62,0,0,0-.36.62c0,1.95,0,3.9,0,5.85,0,.14,0,.28,0,.42h10V29.82ZM19.21,42H29.28c0-2.17,0-4.31,0-6.45a.59.59,0,0,0-.27-.38L25.6,33a3.66,3.66,0,0,1-1.75-2.54c-.13-.71-.29-1.41-.44-2.15-1.29.46-2.53.91-3.79,1.32-.34.12-.42.28-.42.63q0,5.61,0,11.22Zm5.27-24.49c0,.68,0,1.34,0,2a5.38,5.38,0,0,0,1.22,3.55,5.19,5.19,0,0,0,7,1.36A6,6,0,0,0,35,21.52c.53-1.3.27-2.66.32-4ZM27.8,8.89a14.91,14.91,0,0,0-1.68.76,5.5,5.5,0,0,0-2.67,5c0,.76,0,.77-.65,1-.08,0-.12.13-.17.2a.82.82,0,0,0,.2.12,1.13,1.13,0,0,0,.26,0H36.8A.74.74,0,0,0,37,16a1,1,0,0,0,.22-.14c-.06-.06-.11-.16-.18-.18-.58-.2-.68-.31-.67-.94a5.93,5.93,0,0,0-.37-2.4A5.45,5.45,0,0,0,32.06,9c0,.56,0,1.06,0,1.57a1.83,1.83,0,0,1-1.45,1.91,4.69,4.69,0,0,1-.92,0,1.81,1.81,0,0,1-1.89-1.9C27.79,10.09,27.8,9.57,27.8,8.89Zm-9.9,21.4c-.38.13-.74.24-1.08.39A4.13,4.13,0,0,0,14.15,34a27.3,27.3,0,0,0-.2,2.87c-.07,1.51-.13,3-.21,4.53,0,.36.1.64.49.65H17.9Zm-.21-19.51a4.34,4.34,0,0,1,.63.43c1.13,1,2.25,2.1,3.38,3.15.09.09.25.1.37.14a1.06,1.06,0,0,0,.12-.34c0-.24,0-.5.07-.74a.59.59,0,0,0-.21-.64L18.44,9.41c-.61-.58-.87-.58-1.48,0L4.41,21.23c-.54.5-.63.91-.29,1.25s.7.27,1.24-.23l11.7-11A4.9,4.9,0,0,1,17.69,10.78ZM15.48,29.87c.47-.2.9-.39,1.35-.56.93-.34,1.86-.67,2.8-1a.47.47,0,0,0,.38-.56c0-1.3,0-2.59,0-3.89v-.42H15.48Zm9.39-.79c.08.41.16.73.21,1.06A2.48,2.48,0,0,0,26.36,32c1.1.66,2.18,1.35,3.25,2a.5.5,0,0,0,.62,0c1.07-.69,2.11-1.41,3.22-2s1.32-1.79,1.51-2.95A8.12,8.12,0,0,1,24.87,29.08Zm1.06-.87c2.61,2.08,6.46,1.48,7.89,0a4.19,4.19,0,0,1-1.24-.77,4.11,4.11,0,0,1-.45-1.36,6.57,6.57,0,0,1-4.6,0C27.9,27.46,26.86,27.77,25.93,28.21ZM8.78,11.91v3.45a20.68,20.68,0,0,1,1.71-1.59c.7-.51.64-1.15.55-1.86Zm22-2.26h0c0-.35,0-.7,0-1.05A.58.58,0,0,0,30.15,8h-.44a.58.58,0,0,0-.64.61c0,.69,0,1.37,0,2.05a.57.57,0,0,0,.6.61,5.42,5.42,0,0,0,.57,0,.53.53,0,0,0,.53-.58C30.78,10.32,30.77,10,30.77,9.65Zm5.89,9.42c.18-.1.39-.16.4-.24,0-.43,0-.87,0-1.34l-.41,0ZM23.17,19V17.49l-.4,0C22.64,18.83,22.68,19,23.17,19Z"/></svg>