<svg id="Layer_1" data-name="Layer 1" xmlns="http://www.w3.org/2000/svg" viewBox="0 0 50 50"><path d="M26.37,48.3h-.28a7,7,0,0,1-.82-.61q-3.45-3.4-6.87-6.85a1,1,0,0,0-.79-.33c-2.92,0-5.83,0-8.75,0a4.25,4.25,0,0,1-1.13-.11,2.88,2.88,0,0,1-2.18-3c0-3,0-5.91,0-8.86a1.05,1.05,0,0,0-.34-.84c-1-.94-1.92-1.9-2.87-2.86-.25-.26-.47-.55-.7-.83v-.45a6.21,6.21,0,0,1,.56-.76q1.5-1.53,3-3A1,1,0,0,0,5.56,19c0-2.13,0-4.25,0-6.37a4,4,0,0,1,.31-1.54,2.89,2.89,0,0,1,2.9-1.65c7.27,0,14.53,0,21.8,0A1.53,1.53,0,0,0,31.76,9C33.82,6.88,35.9,4.82,38,2.75a3,3,0,0,1,4.51,0l.94.93a2.9,2.9,0,0,1,0,4.45L42.07,9.44h2.17a4,4,0,0,1,3,1.16,4.41,4.41,0,0,1,1.14,2.29v30a.46.46,0,0,0-.07.16,3.78,3.78,0,0,1-3.55,3.21c-1,.06-2,0-3,0s-1.19-.35-1.2-1.23V40.57H32l.17.19c.82.85.82,1.19,0,2-1.64,1.64-3.28,3.28-4.94,4.91A6.31,6.31,0,0,1,26.37,48.3Zm2.91-36.91H8.5a1,1,0,0,0-1,1.07c0,.54,0,1.09,0,1.63v3.37a1.21,1.21,0,0,1,1.68.33Q19.4,28,29.63,38.23a1,1,0,0,0,.84.34q6.81,0,13.63,0a10.09,10.09,0,0,1,1.79.28,2.84,2.84,0,0,1,.5.21c0-.12,0-.18,0-.24q0-12.66,0-25.31a2,2,0,0,0-2.12-2.13c-1.22,0-2.43,0-3.65,0a1,1,0,0,0-.84.34l-9.92,9.92L28.42,23h8.22V25H22.3a1,1,0,0,1-1.08-1.47c.61-1.83,1.21-3.66,1.84-5.47a2.73,2.73,0,0,1,.63-1c1.71-1.74,3.45-3.46,5.18-5.19ZM22.48,34,19.9,31.39,18,33.4,16.56,32l2-2L16,27.48l-1.94,2-1.41-1.33,2-2-2.55-2.54-1.9,2L8.71,24.2l2-1.95L8.16,19.7l-4.06,4L26.23,45.82l4.09-4.08-2.6-2.6-1.94,2-1.45-1.39,2-1.93-2.56-2.54-2,2-1.38-1.34ZM36.22,7.38,25.63,18l2.53,2.58L38.78,9.92ZM15.94,38.57,7.5,30.14s0,0,0,.06v7.28a1,1,0,0,0,1.12,1.08h7.33ZM37.63,5.85l2.64,2.61c.64-.62,1.32-1.26,2-1.94a.87.87,0,0,0,0-1.3c-.41-.45-.84-.88-1.28-1.29a.93.93,0,0,0-1.38,0C38.89,4.56,38.26,5.22,37.63,5.85Zm4.9,38.53c.76,0,1.49,0,2.2,0a1.88,1.88,0,0,0,1.66-1.77,1.86,1.86,0,0,0-1.49-2,18.68,18.68,0,0,0-2.37,0Zm-18-24.53-.87,2.62,2.62-.88Z"/><path d="M38.41,23.07V25H36.5V23.07Z"/><path d="M42.28,23.07V25H40.39V23.07Z"/></svg>