<svg id="Layer_1" data-name="Layer 1" xmlns="http://www.w3.org/2000/svg" viewBox="0 0 50 50"><path d="M45.23,32.94a2.39,2.39,0,0,1-1.3,1.69,6.06,6.06,0,0,1-1.42.28,5.92,5.92,0,0,1-.73,0c-.38,1-.67,1.9-1.1,2.77A13.58,13.58,0,0,1,34.25,44a3.24,3.24,0,0,1-3.07,0,13.47,13.47,0,0,1-7.25-8.42l-.19-.63H7.41a2.41,2.41,0,0,1-2.68-2.69V10.76A2.43,2.43,0,0,1,7.45,8H42.28c1.75,0,2.3.37,2.95,2Zm-21.76.39c0-.37-.07-.69-.07-1,0-1.66,0-3.33,0-5a.83.83,0,0,1,.72-1A35,35,0,0,0,32.17,23a1,1,0,0,1,1.11,0c.73.4,1.46.8,2.2,1.16a35.17,35.17,0,0,0,5.86,2.23.84.84,0,0,1,.72.9c0,1.7,0,3.4,0,5.1,0,.31,0,.62-.07,1h.44c1,0,1.22-.2,1.22-1.22v-13H6.31V32.23c0,.86.25,1.1,1.12,1.1h16Zm17.13-3h-.12c0-.73,0-1.45,0-2.17,0-.24-.06-.35-.3-.42a37.56,37.56,0,0,1-7.22-3,.67.67,0,0,0-.5,0c-.66.32-1.29.72-2,1-1.71.7-3.45,1.35-5.17,2-.14,0-.34.21-.34.32A44.68,44.68,0,0,0,25.07,33a11.55,11.55,0,0,0,7,9.59,1.36,1.36,0,0,0,1.24,0,11.58,11.58,0,0,0,6.8-8.23A33.11,33.11,0,0,0,40.6,30.28ZM6.34,14.37v3.11H43.62V14.37Zm37.3-1.62v-2c0-.95-.22-1.17-1.16-1.17H7.73c-1.3,0-1.42.13-1.42,1.44v1.71Z"/><path d="M17.78,28.25a3.57,3.57,0,0,1-4.62,3.33,1.47,1.47,0,0,0-.72,0,3.55,3.55,0,0,1-4-5.23,3.42,3.42,0,0,1,3.48-1.67,6,6,0,0,0,1.93,0A3.53,3.53,0,0,1,17.78,28.25Zm-6.31-2a2,2,0,1,0,2,2A2,2,0,0,0,11.47,26.22Zm3,3.87a1.89,1.89,0,0,0,1.73-1.94,1.87,1.87,0,0,0-1.73-1.85A3.57,3.57,0,0,1,14.47,30.09Z"/><path d="M10.74,22.65c-.63,0-1.26,0-1.89,0s-.95-.31-.95-.78.37-.79.94-.8h3.75c.59,0,.94.3.94.79s-.34.79-.93.79S11.36,22.65,10.74,22.65Z"/><path d="M14.28,21.87a.78.78,0,0,1,.8-.79.81.81,0,0,1,.8.77.82.82,0,0,1-.82.8A.79.79,0,0,1,14.28,21.87Z"/><path d="M31.73,34.11c.41-.42.78-.82,1.16-1.2,1-1,2-2,3-3A.8.8,0,1,1,37,31.07l-4.58,4.58a.82.82,0,0,1-1.34,0c-.85-.84-1.7-1.69-2.54-2.54-.43-.43-.46-.88-.12-1.22a.81.81,0,0,1,1.22.1C30.3,32.66,31,33.36,31.73,34.11Z"/><path d="M37.25,37.18a1.28,1.28,0,0,1-.18.41c-.58.66-1.17,1.32-1.78,1.94a.76.76,0,0,1-1.1,0,.8.8,0,0,1,0-1.11c.55-.61,1.11-1.22,1.67-1.82a.75.75,0,0,1,.9-.2A.76.76,0,0,1,37.25,37.18Z"/><path d="M32.71,41.11a.77.77,0,0,1-.77-.78.85.85,0,0,1,.81-.8.79.79,0,0,1,.79.77A.81.81,0,0,1,32.71,41.11Z"/></svg>