<svg id="Layer_1" data-name="Layer 1" xmlns="http://www.w3.org/2000/svg" viewBox="0 0 50 50"><path d="M45.71,22.68l-1.25-5a.75.75,0,0,0,.6-.73v-.81A3.17,3.17,0,0,0,41.89,13H36.21V11.33a1.56,1.56,0,0,0-1.56-1.56H5.7a1.56,1.56,0,0,0-1.56,1.56V25a.76.76,0,0,0,1.51,0V11.33a0,0,0,0,1,0-.05h29a0,0,0,0,1,.05.05V25a.76.76,0,0,0,1.51,0v-.85h8.9a2.46,2.46,0,0,1,2.34,1.7H45.11a.76.76,0,0,0-.76.76v1.61a2.37,2.37,0,0,0,2.37,2.36h.85V33.9h-2a4.78,4.78,0,0,0-9,0h-.36V28.22a.76.76,0,1,0-1.51,0V33.9H19.06a4.78,4.78,0,0,0-9,0H5.7a0,0,0,0,1,0,0V32.19H8.91a.76.76,0,1,0,0-1.51H1.67a.76.76,0,0,0,0,1.51H4.14v1.66A1.56,1.56,0,0,0,5.7,35.41H9.77v.05a4.78,4.78,0,0,0,9.55,0v-.05h17v.05a4.78,4.78,0,0,0,9.55,0v-.05h2.47a.76.76,0,0,0,.75-.76v-8A4,4,0,0,0,45.71,22.68Zm-9.5-8.19h5.68a1.66,1.66,0,0,1,1.66,1.66v.05H36.21Zm0,8.15V17.71h6.7l1.23,4.93ZM14.54,38.72a3.27,3.27,0,1,1,3.27-3.26A3.26,3.26,0,0,1,14.54,38.72Zm26.55,0a3.27,3.27,0,1,1,3.26-3.26A3.27,3.27,0,0,1,41.09,38.72Zm6.48-9.65h-.85a.86.86,0,0,1-.86-.85v-.86h1.71v1.71Z"/><path d="M14.54,33.9a1.56,1.56,0,1,0,1.56,1.56A1.55,1.55,0,0,0,14.54,33.9Z"/><path d="M41.09,33.9a1.56,1.56,0,1,0,1.56,1.56A1.56,1.56,0,0,0,41.09,33.9Z"/><path d="M32.24,30.68H21a.76.76,0,1,0,0,1.51H32.24a.76.76,0,0,0,0-1.51Z"/><path d="M12.94,27.46H3.28a.76.76,0,0,0,0,1.51h9.66a.76.76,0,0,0,0-1.51Z"/><path d="M27.14,17.23a.74.74,0,0,0-1.06,0l-6.71,6.7-3.49-3.48a.75.75,0,1,0-1.07,1.06l4,4a.75.75,0,0,0,1.06,0l7.24-7.24A.74.74,0,0,0,27.14,17.23Z"/></svg>